<svg width="800" height="800" viewBox="0 0 800 800" fill="none" xmlns="http://www.w3.org/2000/svg">
<path d="M272 118C272 93.1471 292.147 73 317 73H483.667C508.519 73 528.667 93.1472 528.667 118V151.333C528.667 176.186 508.519 196.333 483.667 196.333H317C292.147 196.333 272 176.186 272 151.333V118Z" stroke="#1C274C" stroke-width="10"/>
<path d="M667.174 166.1L670.71 162.565L667.174 166.1C680.736 179.661 687.797 197.538 691.383 224.215C694.989 251.035 695 285.994 695 333.276V533.277C695 580.558 694.989 615.516 691.383 642.337C687.797 669.014 680.736 686.89 667.174 700.451C653.613 714.013 635.737 721.074 609.06 724.66C582.239 728.266 547.281 728.277 500 728.277H300C252.718 728.277 217.76 728.266 190.939 724.66C164.262 721.074 146.386 714.013 132.825 700.451C119.264 686.89 112.203 669.014 108.617 642.337C105.011 615.516 105 580.558 105 533.277V333.276C105 285.994 105.011 251.035 108.617 224.215C112.203 197.538 119.264 179.661 132.825 166.1C149.652 149.273 173.095 142.477 211.667 139.872V150C211.667 207.99 258.677 255 316.667 255H483.333C541.325 255 588.333 207.99 588.333 150V139.872C626.905 142.477 650.347 149.273 667.174 166.1ZM479.532 378.068L482.943 381.724L479.532 378.068L357.143 492.297L320.47 458.068L317.058 461.724L320.469 458.068C308.357 446.764 289.373 447.42 278.068 459.532L281.305 462.553L278.068 459.532C266.764 471.644 267.418 490.628 279.53 501.932C279.53 501.932 279.531 501.932 279.531 501.932L336.672 555.265L336.672 555.266C348.2 566.021 366.087 566.022 377.612 555.265L520.468 421.933C520.468 421.933 520.468 421.932 520.468 421.932C532.584 410.627 533.235 391.643 521.932 379.532C510.628 367.42 491.644 366.764 479.532 378.068Z" stroke="#1C274C" stroke-width="10"/>
</svg>
